# xmcd CD database file
#
# Track frame offsets:
#	150
#	25603
#	49048
#	72631
#	95054
#	114134
#	136414
#	166952
#	185021
#	203631
#	223317
#	245191
#	267101
#	287578
#
# Disc length: 4232 seconds
#
# Revision: 0
# Processed by: cddbd v1.5.2PL0 Copyright (c) Steve Scherf et al.
# Submitted via: CDex 1.51
#
DISCID=d510860e
DTITLE=Grace Kelly - Every Road I Walked
DYEAR=2006
DGENRE=Jazz
TTITLE0=Every Road I Walked
TTITLE1=I'll Remember April
TTITLE2=East of the Sun (West of the Moon)
TTITLE3=Some Other Time
TTITLE4=I Will
TTITLE5=Nowhere To Run
TTITLE6='Round Midnight
TTITLE7=Filosophical Flying Fish
TTITLE8=Samba de Verao (So Nice)
TTITLE9=Somewhere Over The Rainbow
TTITLE10=Here's That Rainy Day
TTITLE11=Finish Line
TTITLE12=What If I Told You
TTITLE13=Summertime
EXTD=YEAR: 2006
EXTT0=
EXTT1=
EXTT2=
EXTT3=
EXTT4=
EXTT5=
EXTT6=
EXTT7=
EXTT8=
EXTT9=
EXTT10=
EXTT11=
EXTT12=
EXTT13=
PLAYORDER=
